<?xml version="1.0" encoding="UTF-8" standalone="no"?>
<svg
   width="128"
   height="128"
   viewBox="0 0 128 128"
   fill="none"
   version="1.1"
   id="svg1"
   sodipodi:docname="Role_Tank_Circle.svg"
   inkscape:version="1.2.2 (b0a8486541, 2022-12-01)"
   xmlns:inkscape="http://www.inkscape.org/namespaces/inkscape"
   xmlns:sodipodi="http://sodipodi.sourceforge.net/DTD/sodipodi-0.dtd"
   xmlns="http://www.w3.org/2000/svg"
   xmlns:svg="http://www.w3.org/2000/svg">
  <sodipodi:namedview
     id="namedview3229"
     pagecolor="#747474"
     bordercolor="#24db47"
     borderopacity="1"
     inkscape:showpageshadow="false"
     inkscape:pageopacity="0"
     inkscape:pagecheckerboard="1"
     inkscape:deskcolor="#4d4d4d"
     showgrid="false"
     showguides="false"
     inkscape:zoom="3.6660119"
     inkscape:cx="20.185422"
     inkscape:cy="59.874328"
     inkscape:window-width="1920"
     inkscape:window-height="1004"
     inkscape:window-x="0"
     inkscape:window-y="0"
     inkscape:window-maximized="1"
     inkscape:current-layer="svg1">
    <inkscape:grid
       type="xygrid"
       id="grid3233"
       originx="0"
       originy="0"
       empspacing="4" />
  </sodipodi:namedview>
  <defs
     id="defs1" />
  <path
     d="m 91.156115,42.72762 c 0.1408,-5.57501 -4.291048,-6.420419 -8.064915,-7.36 -5.776762,-1.322057 -11.692495,-1.937372 -17.617371,-1.832229 v 0 c -5.924876,-0.105143 -11.840609,0.510172 -17.617066,1.832229 -3.774172,0.939581 -8.205715,1.78499 -8.06461,7.36 0.203581,7.704381 0,15.409066 0,23.113752 -0.03931,1.270857 0.257829,2.529524 0.861257,3.648609 5.623162,10.289372 13.556419,19.133867 23.176229,25.838629 0.446171,0.360533 0.993219,0.574171 1.565866,0.610743 v 0 c 0.572648,-0.03657 1.119695,-0.25021 1.565867,-0.610743 9.619809,-6.704762 17.553371,-15.549257 23.176533,-25.838629 0.603429,-1.119085 0.900571,-2.377752 0.861257,-3.648609 0.109714,-7.704686 -0.04663,-15.409371 0.156953,-23.113752 z"
     fill="black"
     fill-opacity="1"
     id="path1"
     style="fill:#ffffff;fill-opacity:1;stroke-width:3.04762" />
  <circle
     cx="64.00061"
     cy="64.000305"
     r="58.45882"
     stroke="black"
     stroke-opacity="1"
     stroke-width="6.09524"
     id="circle1"
     style="stroke:#ffffff;stroke-opacity:1" />
</svg>
