<?xml version="1.0" encoding="UTF-8" standalone="no"?>
<svg
   width="128"
   height="128"
   viewBox="0 0 128 128"
   fill="none"
   version="1.1"
   id="svg190"
   sodipodi:docname="Role_Damage_Circle.svg"
   inkscape:version="1.2.2 (b0a8486541, 2022-12-01)"
   xmlns:inkscape="http://www.inkscape.org/namespaces/inkscape"
   xmlns:sodipodi="http://sodipodi.sourceforge.net/DTD/sodipodi-0.dtd"
   xmlns="http://www.w3.org/2000/svg"
   xmlns:svg="http://www.w3.org/2000/svg">
  <defs
     id="defs194" />
  <sodipodi:namedview
     id="namedview192"
     pagecolor="#505050"
     bordercolor="#ffffff"
     borderopacity="1"
     inkscape:showpageshadow="0"
     inkscape:pageopacity="0"
     inkscape:pagecheckerboard="1"
     inkscape:deskcolor="#505050"
     showgrid="true"
     inkscape:zoom="3.6660119"
     inkscape:cx="11.183815"
     inkscape:cy="99.972396"
     inkscape:window-width="1920"
     inkscape:window-height="1004"
     inkscape:window-x="0"
     inkscape:window-y="0"
     inkscape:window-maximized="1"
     inkscape:current-layer="svg190">
    <inkscape:grid
       type="xygrid"
       id="grid2048"
       empspacing="4"
       originx="0"
       originy="0" />
  </sodipodi:namedview>
  <path
     d="m 36.874969,88.50256 v 5.863315 c 0,0.476648 0.189562,0.933486 0.526324,1.270553 0.337067,0.336762 0.793905,0.526019 1.270553,0.526019 h 10.256763 c 0.476343,0 0.933486,-0.189257 1.270248,-0.526019 0.337067,-0.337067 0.526019,-0.793905 0.526019,-1.270553 V 88.50256 Z"
     fill="#000000"
     fill-opacity="1"
     id="path176"
     style="fill:#ffffff;fill-opacity:1;stroke-width:3.04762" />
  <path
     d="m 44.321218,33.60914 c -0.28861,-0.113676 -0.609829,-0.113676 -0.898438,0 -6.385982,2.792838 -6.532878,12.053335 -6.532878,12.053335 V 83.129302 H 50.73981 V 45.662475 c 0,0 -0.09783,-9.227887 -6.418592,-12.053335 z"
     fill="#000000"
     fill-opacity="1"
     id="path178"
     style="fill:#ffffff;fill-opacity:1;stroke-width:3.04762" />
  <path
     d="m 57.258973,88.50256 v 5.863315 c 0,0.476648 0.189257,0.933486 0.526324,1.270553 0.336762,0.336762 0.793905,0.526019 1.270248,0.526019 h 10.273221 c 0.475124,-0.0043 0.929829,-0.194743 1.265676,-0.530895 0.336153,-0.335848 0.526629,-0.790553 0.530896,-1.265677 V 88.50256 Z"
     fill="#000000"
     fill-opacity="1"
     id="path180"
     style="fill:#ffffff;fill-opacity:1;stroke-width:3.04762" />
  <path
     d="m 64.639698,33.60914 c -0.288609,-0.113676 -0.609828,-0.113676 -0.898438,0 -6.385982,2.792838 -6.532877,12.053335 -6.532877,12.053335 V 83.129302 H 71.074747 V 45.662475 c 0,0 -0.04907,-9.227887 -6.435049,-12.053335 z"
     fill="#000000"
     fill-opacity="1"
     id="path182"
     style="fill:#ffffff;fill-opacity:1;stroke-width:3.04762" />
  <path
     d="m 77.639929,88.50256 v 5.863315 c 0,0.476648 0.189258,0.933486 0.526324,1.270553 0.336762,0.336762 0.793905,0.526019 1.270248,0.526019 h 10.273221 c 0.476648,0 0.933486,-0.189257 1.270553,-0.526019 0.336762,-0.337067 0.526019,-0.793905 0.526019,-1.270553 V 88.50256 Z"
     fill="#000000"
     fill-opacity="1"
     id="path184"
     style="fill:#ffffff;fill-opacity:1;stroke-width:3.04762" />
  <path
     d="m 85.023093,33.60914 c -0.28861,-0.113676 -0.609219,-0.113676 -0.897829,0 -6.385982,2.792838 -6.532877,12.053335 -6.532877,12.053335 V 83.129302 H 91.458446 V 45.662475 c 0,0 -0.04907,-9.227887 -6.435353,-12.053335 z"
     fill="#000000"
     fill-opacity="1"
     id="path186"
     style="fill:#ffffff;fill-opacity:1;stroke-width:3.04762" />
  <circle
     cx="64.00061"
     cy="64.000305"
     r="58.458832"
     stroke="#000000"
     stroke-opacity="1"
     stroke-width="6.09524"
     id="circle188"
     style="stroke:#ffffff;stroke-opacity:1" />
</svg>
